<mxfile host="app.diagrams.net" modified="2020-12-19T02:07:21.321Z" agent="5.0 (Windows NT 10.0; Win64; x64) AppleWebKit/537.36 (KHTML, like Gecko) Chrome/87.0.4280.88 Safari/537.36" etag="A7g5YInzoHIbCUrZz9bD" version="14.1.1" type="github">
  <diagram id="-QYsURp6JcWLAVrJ4fa9" name="Page-1">
    <mxGraphModel dx="2035" dy="635" grid="1" gridSize="10" guides="1" tooltips="1" connect="1" arrows="1" fold="1" page="1" pageScale="1" pageWidth="850" pageHeight="1100" math="0" shadow="0">
      <root>
        <mxCell id="0" />
        <mxCell id="1" parent="0" />
        <mxCell id="G4IuTopUEwJd7_1jHUSa-1" value="" style="whiteSpace=wrap;html=1;aspect=fixed;" vertex="1" parent="1">
          <mxGeometry x="140" y="90" width="570" height="570" as="geometry" />
        </mxCell>
        <mxCell id="G4IuTopUEwJd7_1jHUSa-2" value="Admin" style="shape=umlActor;verticalLabelPosition=bottom;verticalAlign=top;html=1;outlineConnect=0;" vertex="1" parent="1">
          <mxGeometry x="30" y="290" width="30" height="60" as="geometry" />
        </mxCell>
        <mxCell id="G4IuTopUEwJd7_1jHUSa-7" value="User" style="shape=umlActor;verticalLabelPosition=bottom;verticalAlign=top;html=1;outlineConnect=0;" vertex="1" parent="1">
          <mxGeometry x="770" y="160" width="30" height="60" as="geometry" />
        </mxCell>
        <mxCell id="G4IuTopUEwJd7_1jHUSa-8" value="Customer" style="shape=umlActor;verticalLabelPosition=bottom;verticalAlign=top;html=1;outlineConnect=0;" vertex="1" parent="1">
          <mxGeometry x="760" y="330" width="30" height="60" as="geometry" />
        </mxCell>
        <mxCell id="G4IuTopUEwJd7_1jHUSa-9" value="Guess" style="shape=umlActor;verticalLabelPosition=bottom;verticalAlign=top;html=1;outlineConnect=0;" vertex="1" parent="1">
          <mxGeometry x="750" y="550" width="30" height="60" as="geometry" />
        </mxCell>
        <mxCell id="G4IuTopUEwJd7_1jHUSa-15" value="Signup&lt;span style=&quot;color: rgba(0 , 0 , 0 , 0) ; font-family: monospace ; font-size: 0px&quot;&gt;%3CmxGraphModel%3E%3Croot%3E%3CmxCell%20id%3D%220%22%2F%3E%3CmxCell%20id%3D%221%22%20parent%3D%220%22%2F%3E%3CmxCell%20id%3D%222%22%20value%3D%22Actor%22%20style%3D%22shape%3DumlActor%3BverticalLabelPosition%3Dbottom%3BverticalAlign%3Dtop%3Bhtml%3D1%3BoutlineConnect%3D0%3B%22%20vertex%3D%221%22%20parent%3D%221%22%3E%3CmxGeometry%20x%3D%22770%22%20y%3D%22160%22%20width%3D%2230%22%20height%3D%2260%22%20as%3D%22geometry%22%2F%3E%3C%2FmxCell%3E%3C%2Froot%3E%3C%2FmxGraphModel%3E&lt;/span&gt;" style="ellipse;whiteSpace=wrap;html=1;" vertex="1" parent="1">
          <mxGeometry x="540" y="600" width="110" height="50" as="geometry" />
        </mxCell>
        <mxCell id="G4IuTopUEwJd7_1jHUSa-16" value="View detail" style="ellipse;whiteSpace=wrap;html=1;" vertex="1" parent="1">
          <mxGeometry x="530" y="525" width="110" height="50" as="geometry" />
        </mxCell>
        <mxCell id="G4IuTopUEwJd7_1jHUSa-17" value="Login" style="ellipse;whiteSpace=wrap;html=1;" vertex="1" parent="1">
          <mxGeometry x="570" y="100" width="110" height="50" as="geometry" />
        </mxCell>
        <mxCell id="G4IuTopUEwJd7_1jHUSa-18" value="Logout" style="ellipse;whiteSpace=wrap;html=1;" vertex="1" parent="1">
          <mxGeometry x="490" y="150" width="110" height="50" as="geometry" />
        </mxCell>
        <mxCell id="G4IuTopUEwJd7_1jHUSa-19" value="Changepass" style="ellipse;whiteSpace=wrap;html=1;" vertex="1" parent="1">
          <mxGeometry x="570" y="190" width="110" height="50" as="geometry" />
        </mxCell>
        <mxCell id="G4IuTopUEwJd7_1jHUSa-21" value="" style="endArrow=classic;html=1;entryX=1;entryY=0.5;entryDx=0;entryDy=0;exitX=0;exitY=0.3333333333333333;exitDx=0;exitDy=0;exitPerimeter=0;" edge="1" parent="1" source="G4IuTopUEwJd7_1jHUSa-7" target="G4IuTopUEwJd7_1jHUSa-17">
          <mxGeometry width="50" height="50" relative="1" as="geometry">
            <mxPoint x="400" y="380" as="sourcePoint" />
            <mxPoint x="450" y="330" as="targetPoint" />
          </mxGeometry>
        </mxCell>
        <mxCell id="G4IuTopUEwJd7_1jHUSa-22" value="" style="endArrow=classic;html=1;exitX=0;exitY=0.3333333333333333;exitDx=0;exitDy=0;exitPerimeter=0;" edge="1" parent="1" target="G4IuTopUEwJd7_1jHUSa-18">
          <mxGeometry width="50" height="50" relative="1" as="geometry">
            <mxPoint x="780" y="190" as="sourcePoint" />
            <mxPoint x="640" y="145" as="targetPoint" />
          </mxGeometry>
        </mxCell>
        <mxCell id="G4IuTopUEwJd7_1jHUSa-23" value="" style="endArrow=classic;html=1;entryX=1;entryY=0.5;entryDx=0;entryDy=0;exitX=0;exitY=0.3333333333333333;exitDx=0;exitDy=0;exitPerimeter=0;" edge="1" parent="1" target="G4IuTopUEwJd7_1jHUSa-19">
          <mxGeometry width="50" height="50" relative="1" as="geometry">
            <mxPoint x="790" y="200" as="sourcePoint" />
            <mxPoint x="650" y="155" as="targetPoint" />
          </mxGeometry>
        </mxCell>
        <mxCell id="G4IuTopUEwJd7_1jHUSa-27" value="Search" style="ellipse;whiteSpace=wrap;html=1;" vertex="1" parent="1">
          <mxGeometry x="450" y="440" width="110" height="50" as="geometry" />
        </mxCell>
        <mxCell id="G4IuTopUEwJd7_1jHUSa-28" value="Add into list" style="ellipse;whiteSpace=wrap;html=1;" vertex="1" parent="1">
          <mxGeometry x="430" y="350" width="110" height="50" as="geometry" />
        </mxCell>
        <mxCell id="G4IuTopUEwJd7_1jHUSa-29" value="Checklist" style="ellipse;whiteSpace=wrap;html=1;" vertex="1" parent="1">
          <mxGeometry x="480" y="300" width="110" height="50" as="geometry" />
        </mxCell>
        <mxCell id="G4IuTopUEwJd7_1jHUSa-30" value="Sent form" style="ellipse;whiteSpace=wrap;html=1;" vertex="1" parent="1">
          <mxGeometry x="560" y="260" width="110" height="50" as="geometry" />
        </mxCell>
        <mxCell id="G4IuTopUEwJd7_1jHUSa-32" value="" style="endArrow=classic;html=1;exitX=0;exitY=0.3333333333333333;exitDx=0;exitDy=0;exitPerimeter=0;entryX=1;entryY=0.5;entryDx=0;entryDy=0;" edge="1" parent="1" source="G4IuTopUEwJd7_1jHUSa-8" target="G4IuTopUEwJd7_1jHUSa-30">
          <mxGeometry width="50" height="50" relative="1" as="geometry">
            <mxPoint x="400" y="380" as="sourcePoint" />
            <mxPoint x="450" y="330" as="targetPoint" />
          </mxGeometry>
        </mxCell>
        <mxCell id="G4IuTopUEwJd7_1jHUSa-33" value="" style="endArrow=classic;html=1;exitX=0;exitY=0.3333333333333333;exitDx=0;exitDy=0;exitPerimeter=0;entryX=1;entryY=0.5;entryDx=0;entryDy=0;" edge="1" parent="1" target="G4IuTopUEwJd7_1jHUSa-29">
          <mxGeometry width="50" height="50" relative="1" as="geometry">
            <mxPoint x="770" y="360" as="sourcePoint" />
            <mxPoint x="680" y="295" as="targetPoint" />
          </mxGeometry>
        </mxCell>
        <mxCell id="G4IuTopUEwJd7_1jHUSa-34" value="" style="endArrow=classic;html=1;exitX=0;exitY=0.3333333333333333;exitDx=0;exitDy=0;exitPerimeter=0;" edge="1" parent="1" target="G4IuTopUEwJd7_1jHUSa-28">
          <mxGeometry width="50" height="50" relative="1" as="geometry">
            <mxPoint x="780" y="370" as="sourcePoint" />
            <mxPoint x="690" y="305" as="targetPoint" />
          </mxGeometry>
        </mxCell>
        <mxCell id="G4IuTopUEwJd7_1jHUSa-36" value="" style="endArrow=classic;html=1;" edge="1" parent="1" source="G4IuTopUEwJd7_1jHUSa-8" target="G4IuTopUEwJd7_1jHUSa-16">
          <mxGeometry width="50" height="50" relative="1" as="geometry">
            <mxPoint x="800" y="390" as="sourcePoint" />
            <mxPoint x="560.9849478378171" y="461.28519099573873" as="targetPoint" />
          </mxGeometry>
        </mxCell>
        <mxCell id="G4IuTopUEwJd7_1jHUSa-37" value="" style="endArrow=classic;html=1;exitX=0.5;exitY=0.5;exitDx=0;exitDy=0;exitPerimeter=0;entryX=1;entryY=0.7;entryDx=0;entryDy=0;entryPerimeter=0;" edge="1" parent="1" source="G4IuTopUEwJd7_1jHUSa-9" target="G4IuTopUEwJd7_1jHUSa-16">
          <mxGeometry width="50" height="50" relative="1" as="geometry">
            <mxPoint x="810" y="400" as="sourcePoint" />
            <mxPoint x="570.9849478378171" y="471.28519099573873" as="targetPoint" />
          </mxGeometry>
        </mxCell>
        <mxCell id="G4IuTopUEwJd7_1jHUSa-38" value="" style="endArrow=classic;html=1;exitX=0.5;exitY=0.5;exitDx=0;exitDy=0;exitPerimeter=0;entryX=1;entryY=0.5;entryDx=0;entryDy=0;" edge="1" parent="1" source="G4IuTopUEwJd7_1jHUSa-9" target="G4IuTopUEwJd7_1jHUSa-15">
          <mxGeometry width="50" height="50" relative="1" as="geometry">
            <mxPoint x="775" y="590" as="sourcePoint" />
            <mxPoint x="650" y="570" as="targetPoint" />
          </mxGeometry>
        </mxCell>
        <mxCell id="G4IuTopUEwJd7_1jHUSa-39" value="" style="endArrow=classic;html=1;entryX=1;entryY=0.5;entryDx=0;entryDy=0;" edge="1" parent="1" target="G4IuTopUEwJd7_1jHUSa-27">
          <mxGeometry width="50" height="50" relative="1" as="geometry">
            <mxPoint x="760" y="370" as="sourcePoint" />
            <mxPoint x="549.9618036876075" y="384.06844400529496" as="targetPoint" />
          </mxGeometry>
        </mxCell>
        <mxCell id="G4IuTopUEwJd7_1jHUSa-40" value="https://timoday.edu.vn/tu-phan-tich-thiet-ke-uml-den-viet-code-theo-mo-hinh-mvc-ung-dung-xay-dung-website-thuong-mai-dien-tu-voi-cong-nghe-java-jspservlet/" style="text;html=1;align=center;verticalAlign=middle;resizable=0;points=[];autosize=1;" vertex="1" parent="1">
          <mxGeometry x="-70" y="700" width="860" height="20" as="geometry" />
        </mxCell>
      </root>
    </mxGraphModel>
  </diagram>
</mxfile>
